<svg viewBox="0 0 20 20" xmlns="http://www.w3.org/2000/svg"><path d="M3 0v20h14v-1H4V1h8v4h4v7h1V4l-4-4H3zm10 1.354L15.646 4H13V1.354zM5 13v5h1v-2h1.5l.156-.008.157-.025.15-.041.146-.057.141-.07.133-.086.12-.098.112-.111.098-.123.086-.131.07-.14.057-.147.04-.15.026-.157L9 14.5l-.008-.156-.025-.156-.041-.15-.057-.147-.07-.141-.086-.133-.098-.12-.111-.112-.121-.098-.133-.086-.14-.072-.147-.057-.15-.039-.157-.025L7.5 13H5zm5 0v5h2l.184-.008.183-.027.18-.041.176-.059.17-.074.16-.092.152-.103.143-.117.13-.131.118-.143.103-.152.092-.162.074-.168.059-.176.04-.18.028-.183L14 16v-1l-.008-.184-.027-.183-.041-.182-.059-.174-.074-.17-.092-.16-.103-.152-.117-.143-.131-.13-.143-.118-.152-.105-.16-.09-.17-.074-.176-.059-.18-.043-.183-.025L12 13h-2zm5 0v5h1v-2h2v-1h-2v-1h3v-1h-4zm-9 1h1.5l.092.008.088.025.084.041.072.057.062.068.05.078.032.086.018.09v.094l-.018.09-.033.086-.049.078-.062.068-.072.057-.084.039-.088.025L7.5 15H6v-1zm5 0h1l.13.008.13.025.123.043.117.059.11.072.097.086.086.098.072.109.059.117.043.123.025.13L13 15v1l-.008.13-.025.128-.043.125-.059.117-.072.107-.086.1-.098.086-.109.072-.117.059-.123.04-.13.028L12 17h-1v-3z" fill="#0f62fe" fill-opacity="1" stroke="none" stroke-width="0" class="fill-222222"></path></svg>